<?xml version="1.0" standalone="no"?>
<!DOCTYPE svg PUBLIC "-//W3C//DTD SVG 20010904//EN"
 "http://www.w3.org/TR/2001/REC-SVG-20010904/DTD/svg10.dtd">
<svg version="1.0" xmlns="http://www.w3.org/2000/svg"
 width="1000.000000pt" height="562.000000pt" viewBox="0 0 1000.000000 562.000000"
 preserveAspectRatio="xMidYMid meet">

<g transform="translate(0.000000,562.000000) scale(0.100000,-0.100000)"
fill="#000000" stroke="none">
<path d="M2339 5170 c-39 -23 -32 -53 95 -448 68 -213 269 -839 446 -1392 177
-553 364 -1136 416 -1297 52 -160 94 -297 94 -305 0 -18 48 -168 61 -191 9
-16 7 -18 -12 -12 -13 4 -24 2 -29 -5 -4 -6 -38 -16 -76 -22 -92 -14 -104 -18
-80 -27 34 -13 -9 -22 -44 -9 -17 5 -34 8 -37 4 -6 -6 39 -26 66 -29 27 -3
161 24 167 34 10 17 53 9 64 -12 16 -28 8 -32 -37 -20 -21 6 -47 11 -58 10
-16 0 -14 -3 10 -15 l30 -14 -35 5 c-30 5 -33 4 -20 -8 19 -18 75 -37 107 -37
15 0 22 -4 17 -11 -3 -6 -19 -9 -35 -7 -15 3 -26 1 -24 -3 3 -3 -32 -12 -76
-19 -67 -11 -91 -10 -137 1 l-57 14 83 11 c94 14 116 20 108 32 -3 5 -53 0
-111 -11 -94 -18 -112 -19 -163 -7 l-57 14 87 10 c48 6 93 17 100 24 16 16 2
15 -82 -3 -75 -17 -152 -19 -197 -6 -25 7 -33 6 -37 -6 -9 -23 -1 -29 61 -43
32 -7 63 -16 68 -20 13 -8 84 -30 110 -33 11 -1 25 -5 30 -8 17 -10 78 -29
110 -33 17 -3 50 -12 75 -22 25 -9 61 -18 80 -21 19 -2 39 -8 45 -12 5 -5 34
-14 63 -21 32 -7 52 -17 52 -26 0 -8 -7 -14 -15 -14 -24 0 -816 227 -963 275
-7 3 -10 1 -7 -5 8 -14 309 -107 754 -235 107 -30 197 -57 199 -60 17 -17 -41
-1 -478 126 -98 29 -491 149 -553 169 -16 5 -25 5 -22 0 7 -11 301 -106 685
-220 351 -104 335 -99 327 -106 -3 -3 -63 13 -134 34 -70 22 -220 68 -333 101
-113 33 -297 90 -410 125 -191 61 -259 76 -179 42 53 -23 4 -20 -66 4 -71 24
-83 25 -31 0 55 -25 29 -33 -35 -10 -57 21 -102 27 -59 8 98 -44 114 -49 137
-43 19 4 23 3 17 -7 -5 -8 -1 -8 11 2 11 9 16 10 11 3 -4 -7 -4 -13 1 -14 8
-1 15 -2 61 -13 53 -14 62 -14 68 -4 5 7 0 9 -12 6 -11 -3 -25 1 -32 9 -7 7
-11 13 -9 13 14 0 114 -34 131 -45 16 -10 484 -160 804 -257 23 -7 42 -16 42
-20 0 -4 -6 -6 -12 -3 -16 5 -292 91 -488 151 -80 25 -201 63 -269 85 -68 22
-133 39 -145 37 -11 -2 96 -41 239 -86 507 -163 680 -221 659 -221 -11 -1 -40
5 -65 13 -24 8 -192 63 -374 121 -668 216 -906 295 -933 310 l-27 16 38 -5
c20 -3 37 -1 37 5 0 5 -27 9 -61 9 -73 0 -157 19 -137 31 8 5 3 7 -15 5 -38
-4 -41 -10 -38 -64 2 -41 8 -52 44 -84 23 -20 46 -37 51 -38 5 0 17 -6 25 -14
9 -8 36 -21 61 -29 25 -9 176 -73 335 -142 381 -167 717 -309 888 -376 126
-49 141 -58 178 -101 22 -27 36 -48 31 -48 -9 0 -310 126 -487 203 -44 19
-101 44 -128 56 l-47 20 11 -20 c6 -11 17 -18 24 -15 10 3 12 0 8 -11 -4 -10
-2 -14 4 -10 5 4 19 0 29 -8 10 -8 27 -15 37 -15 9 0 17 -5 17 -11 0 -6 9 -8
21 -4 13 4 19 3 16 -2 -7 -11 40 -36 53 -28 4 3 10 -2 14 -10 3 -8 15 -15 26
-15 11 0 20 -3 20 -8 0 -4 15 -13 33 -21 17 -8 76 -36 131 -63 54 -26 107 -48
116 -48 10 0 20 -5 22 -11 3 -8 29 -11 75 -10 73 2 95 -8 73 -34 -6 -8 -9 -19
-5 -24 4 -7 -1 -9 -12 -5 -10 3 -1 -5 19 -18 21 -13 38 -28 38 -34 0 -7 8 -11
18 -10 11 1 16 -5 15 -19 -1 -11 0 -14 3 -7 5 10 9 10 20 1 11 -9 14 -8 14 2
0 11 2 12 9 1 6 -10 50 -13 187 -13 98 0 193 4 209 9 17 5 36 7 43 5 6 -3 12
0 12 6 0 6 3 10 8 9 4 -2 36 5 72 15 36 10 88 25 115 32 28 8 124 31 215 50
91 20 174 40 185 45 11 5 90 28 175 50 85 22 193 52 240 65 294 83 515 143
570 155 81 19 343 91 374 104 19 8 74 24 123 36 98 24 188 50 403 116 248 77
396 119 515 149 39 9 84 23 100 30 17 7 57 21 90 30 98 27 375 115 445 141 36
13 83 28 105 33 22 5 69 20 105 33 55 20 65 27 63 46 -2 16 4 23 25 28 39 10
97 41 180 97 l73 48 -3 97 -3 97 -30 -1 c-16 0 -46 -3 -65 -6 -19 -3 -27 -3
-17 -1 9 2 17 9 17 14 0 5 3 8 8 8 4 -1 14 0 22 1 36 5 -259 50 -300 45 -55
-6 -70 2 -59 32 8 21 59 43 101 43 10 0 22 9 28 21 10 18 -10 57 -161 307
-536 889 -1293 2120 -1322 2149 -13 13 -698 122 -1712 272 -651 97 -2439 351
-2463 351 -9 0 -24 -5 -33 -10z m5386 -3174 c0 -22 -7 -26 -75 -40 -41 -9 -95
-19 -120 -22 -25 -3 -85 -14 -135 -24 -132 -28 -157 -31 -152 -23 3 5 -72 9
-167 10 -94 1 -162 -2 -151 -6 16 -7 14 -9 -14 -14 -19 -4 -66 -8 -105 -8 -39
-1 -60 -4 -46 -7 l25 -5 -25 -8 c-19 -7 -16 -7 10 -3 19 4 76 8 125 10 50 1
102 7 117 13 17 6 29 7 33 1 4 -6 21 -11 38 -11 24 -1 15 -5 -35 -18 -37 -9
-70 -19 -73 -22 -10 -10 -46 2 -39 13 4 6 -12 7 -42 2 -53 -9 -54 -9 -226 1
-65 5 -118 11 -118 15 0 8 75 20 124 20 18 0 37 5 43 11 6 6 45 13 88 16 49 4
72 9 62 14 -8 5 -38 4 -67 -1 -29 -6 -82 -11 -119 -11 -48 -1 -58 -3 -36 -8
28 -6 27 -7 -19 -14 -27 -4 -66 -7 -87 -7 -59 0 -40 -28 24 -37 l52 -6 -35
-10 c-19 -5 -80 -7 -136 -5 -56 1 -100 0 -97 -4 2 -5 28 -8 56 -9 l52 -1 -60
-15 c-44 -11 -83 -13 -145 -7 -82 7 -84 8 -41 15 77 14 69 17 -39 17 -72 -1
-91 -3 -60 -7 l45 -7 -70 -12 c-48 -9 -92 -11 -140 -5 l-70 8 80 17 c177 38
475 87 565 94 61 5 87 10 75 15 -18 7 -17 8 5 9 14 0 102 16 195 34 l170 34
68 -39 c47 -26 81 -39 105 -39 21 1 152 25 292 55 140 29 264 54 275 54 15 1
20 -5 20 -23z m380 -27 c-11 -4 -31 -8 -44 -8 -23 -1 -24 0 -7 12 10 8 30 11
45 9 23 -5 24 -6 6 -13z m66 -10 c-14 -6 -28 -6 -33 -1 -5 5 5 9 24 10 31 0
31 -1 9 -9z m6 -35 c-3 -3 -12 -4 -19 -1 -8 3 -5 6 6 6 11 1 17 -2 13 -5z
m-40 -10 c-3 -3 -12 -4 -19 -1 -8 3 -5 6 6 6 11 1 17 -2 13 -5z m-974 -61 c-7
-2 -19 -2 -25 0 -7 3 -2 5 12 5 14 0 19 -2 13 -5z m-413 -44 c-35 -14 -145
-23 -167 -14 -15 7 -13 9 12 15 17 4 64 8 105 8 60 1 70 -1 50 -9z m-186 -28
c9 -14 -101 -31 -152 -24 l-47 7 55 12 c67 14 137 17 144 5z m231 0 c-39 -15
-80 -23 -70 -13 10 10 42 18 75 20 8 0 6 -3 -5 -7z m-866 -11 c25 -1 32 -3 21
-9 -30 -18 -127 -29 -195 -22 l-70 7 55 11 c30 7 64 14 75 17 11 2 33 2 49 0
16 -2 45 -4 65 -4z m301 -7 c20 -5 13 -8 -35 -19 -59 -12 -205 -8 -205 6 0 9
154 26 190 22 14 -2 36 -6 50 -9z m-214 -33 c64 0 47 -15 -33 -28 -65 -11
-217 -2 -183 10 34 12 132 27 145 21 9 -3 15 1 16 8 0 11 2 11 6 2 3 -8 23
-13 49 -13z m370 8 c-20 -11 -215 -25 -205 -15 11 13 86 25 154 26 56 0 66 -2
51 -11z m-618 -13 c5 -5 -96 -25 -123 -25 -14 0 -25 -5 -25 -11 0 -8 13 -9 43
-4 50 9 54 9 130 7 72 -2 67 -16 -13 -31 -62 -12 -252 -4 -201 9 46 11 36 30
-16 30 -71 0 -74 13 -6 27 48 9 200 8 211 -2z m686 -17 c-2 -3 -12 -6 -22 -6
-9 1 -28 -2 -42 -5 -23 -6 -23 -6 2 6 29 14 69 17 62 5z m43 6 c-3 -3 -12 -4
-19 -1 -8 3 -5 6 6 6 11 1 17 -2 13 -5z m-1022 -14 c3 -5 25 -10 47 -10 56 0
44 -8 -37 -25 -70 -14 -219 -10 -193 6 7 5 25 9 40 9 15 0 30 5 33 10 4 6 10
8 13 6 4 -2 23 -1 42 4 49 11 48 11 55 0z m690 -10 c3 -5 27 -10 52 -10 54 0
50 -13 -5 -16 -20 -1 -50 -9 -67 -18 -16 -9 -39 -15 -50 -15 -12 1 -5 6 17 13
38 12 60 26 39 26 -7 0 -9 5 -6 10 8 13 -2 13 -80 -5 -44 -11 -82 -13 -118 -8
l-52 7 65 12 c83 15 197 17 205 4z m190 0 c-3 -5 -14 -10 -23 -9 -14 0 -13 2
3 9 27 11 27 11 20 0z m-45 -4 c0 -3 -4 -8 -10 -11 -5 -3 -10 -1 -10 4 0 6 5
11 10 11 6 0 10 -2 10 -4z m-1005 -35 c60 -3 43 -12 -55 -30 -44 -8 -88 -9
-135 -3 l-70 9 53 8 c28 4 52 10 52 14 0 6 66 7 155 2z m603 0 c20 -12 -93
-33 -163 -29 l-60 3 75 16 c86 19 130 22 148 10z m-283 -10 c28 -6 25 -8 -29
-20 -33 -7 -87 -12 -120 -12 -69 2 -157 17 -116 21 52 3 104 11 109 16 6 6
121 3 156 -5z m440 -11 c-3 -5 -12 -10 -18 -10 -7 0 -6 4 3 10 19 12 23 12 15
0z m-975 -27 c20 -5 13 -9 -35 -19 -68 -15 -151 -17 -210 -5 -39 8 -39 9 -7
10 17 0 33 1 35 2 65 23 151 27 217 12z m610 -3 c0 -13 -130 -32 -185 -28 -60
4 -46 11 60 30 79 14 125 13 125 -2z m310 16 c0 -2 -13 -6 -30 -8 -16 -3 -30
-1 -30 4 0 4 14 8 30 8 17 0 30 -2 30 -4z m-617 -15 c46 -1 22 -17 -45 -31
-39 -7 -90 -9 -142 -5 -71 7 -77 9 -56 20 13 7 30 10 39 8 9 -2 27 1 41 6 14
6 50 9 80 6 30 -2 68 -4 83 -4z m544 3 c-3 -3 -12 -4 -19 -1 -8 3 -5 6 6 6 11
1 17 -2 13 -5z m-1097 -43 l45 -7 -91 -17 c-85 -16 -215 -15 -198 2 21 22 167
35 244 22z m285 -5 l70 -12 -55 -11 c-107 -22 -122 -23 -198 -10 -55 8 -68 13
-44 15 17 2 32 7 32 12 0 5 6 7 13 5 6 -3 26 -1 42 4 40 12 58 12 140 -3z
m352 -2 c-11 -11 -131 -33 -177 -33 -43 0 -103 16 -70 19 78 6 114 10 118 15
3 3 35 5 70 5 36 0 63 -3 59 -6z m-922 -24 c-3 -6 5 -10 19 -10 51 0 34 -18
-27 -29 -74 -13 -125 -14 -193 -4 l-49 7 65 13 c36 7 85 16 110 19 25 3 47 8
49 10 9 9 32 3 26 -6z m368 -29 c5 -5 -20 -13 -55 -20 -89 -15 -104 -16 -183
-6 -64 7 -67 9 -40 17 17 5 46 12 65 14 19 3 37 7 40 11 7 8 163 -6 173 -16z
m212 -5 c12 -11 1 -16 -71 -30 -56 -11 -100 -15 -132 -10 l-47 7 50 14 c128
35 180 40 200 19z m170 4 c3 -6 -4 -10 -17 -10 -18 0 -20 2 -8 10 19 12 18 12
25 0z m-77 -32 c-22 -13 -68 -9 -68 6 0 19 29 25 58 12 16 -7 19 -12 10 -18z
m-913 3 l50 -6 -49 -13 c-68 -18 -166 -26 -211 -18 -46 9 -38 18 28 32 61 13
114 15 182 5z m264 -1 c20 -5 49 -12 65 -15 15 -3 26 -8 24 -10 -2 -2 -47 -11
-98 -19 -81 -12 -104 -13 -155 -1 -58 13 -59 13 -27 20 17 4 32 12 32 17 0 7
4 7 13 1 8 -7 25 -6 52 2 52 17 51 17 94 5z m309 -31 c24 -1 -82 -26 -145 -34
-28 -4 -71 -4 -95 1 l-43 7 65 14 c170 37 195 40 198 26 2 -7 11 -13 20 -14z
m82 -9 c0 -5 -4 -10 -10 -10 -5 0 -10 5 -10 10 0 6 5 10 10 10 6 0 10 -4 10
-10z m-617 -20 c21 -4 40 -9 42 -12 5 -4 -337 -69 -363 -68 -10 0 -10 4 0 23
17 30 28 37 60 37 15 0 34 8 44 17 11 11 19 14 21 7 3 -9 17 -8 51 2 45 12 58
12 145 -6z m-873 0 c0 -5 -7 -10 -15 -10 -8 0 -15 5 -15 10 0 6 7 10 15 10 8
0 15 -4 15 -10z m-505 -15 c11 -2 25 -4 30 -4 6 -1 4 -5 -4 -10 -7 -5 -32 -3
-59 5 -55 17 -70 30 -22 19 19 -4 44 -9 55 -10z m1610 5 c-18 -8 -18 -9 5 -9
47 -2 5 -19 -89 -36 -56 -10 -109 -14 -133 -10 -50 9 -35 21 37 30 27 4 56 12
63 17 6 6 12 8 12 5 0 -2 15 -1 33 3 17 4 46 8 62 8 25 1 27 -1 10 -8z m1992
-37 c-3 -10 -5 -4 -5 12 0 17 2 24 5 18 2 -7 2 -21 0 -30z m-4017 12 c19 -7
28 -13 20 -13 -8 0 -31 6 -50 13 -19 7 -28 13 -20 13 8 0 31 -6 50 -13z m2140
-6 c0 -5 -4 -9 -10 -9 -5 0 -10 7 -10 16 0 8 5 12 10 9 6 -3 10 -10 10 -16z
m-1625 -6 c11 -3 32 -5 48 -6 31 -1 38 -17 6 -17 -35 0 -109 22 -109 32 0 6 8
7 18 3 9 -4 26 -9 37 -12z m-575 -3 c0 -5 -7 -7 -15 -4 -8 4 -15 8 -15 10 0 2
7 4 15 4 8 0 15 -4 15 -10z m171 -24 c35 -13 179 -58 319 -101 358 -108 514
-159 503 -162 -9 -3 -287 80 -682 203 -95 30 -183 61 -194 69 -29 20 -20 19
54 -9z m836 12 c0 -7 4 -20 7 -29 6 -14 -2 -18 -51 -23 -36 -4 -77 -1 -108 7
l-50 14 89 11 c50 7 94 16 100 22 13 13 13 13 13 -2z m-281 -23 c66 -17 79
-25 39 -25 -36 0 -105 21 -105 32 0 10 -1 11 66 -7z m1078 6 c28 -11 -196 -53
-239 -45 -44 8 -46 24 -2 25 17 0 57 7 87 14 63 14 127 17 154 6z m101 -10 c3
-5 1 -12 -5 -16 -5 -3 -10 1 -10 9 0 18 6 21 15 7z m-1017 -38 c23 -3 41 -10
40 -15 -4 -12 -9 -11 -75 3 -29 7 -53 16 -53 22 0 5 10 6 23 3 12 -3 41 -9 65
-13z m142 -13 c0 -11 -14 -11 -50 0 -22 7 -21 8 13 9 20 1 37 -3 37 -9z m575
-10 c3 -6 -5 -10 -19 -10 -14 0 -28 5 -31 10 -3 6 5 10 19 10 14 0 28 -4 31
-10z m-600 -14 c47 -20 44 -26 -5 -14 -22 6 -40 14 -40 19 0 12 5 11 45 -5z
m511 -7 c3 -5 -9 -9 -25 -9 -17 0 -31 4 -31 9 0 5 11 9 25 9 14 0 28 -4 31 -9z
m2127 -9 c3 -11 1 -23 -4 -26 -5 -3 -9 6 -9 20 0 31 6 34 13 6z m-3208 -390
c3 -6 -1 -7 -9 -4 -18 7 -21 14 -7 14 6 0 13 -4 16 -10z"/>
<path d="M6300 1820 l-25 -8 28 -1 c15 -1 27 4 27 9 0 6 -1 10 -2 9 -2 -1 -14
-5 -28 -9z"/>
<path d="M2068 1483 c7 -3 16 -2 19 1 4 3 -2 6 -13 5 -11 0 -14 -3 -6 -6z"/>
<path d="M2768 1483 c7 -3 16 -2 19 1 4 3 -2 6 -13 5 -11 0 -14 -3 -6 -6z"/>
<path d="M3195 1480 c27 -12 35 -12 35 0 0 6 -12 10 -27 9 -25 0 -26 -1 -8 -9z"/>
<path d="M2220 1470 c0 -6 17 -8 42 -5 58 8 61 15 5 15 -26 0 -47 -4 -47 -10z"/>
<path d="M2648 1473 c6 -2 18 -2 25 0 6 3 1 5 -13 5 -14 0 -19 -2 -12 -5z"/>
<path d="M2188 1463 c7 -3 16 -2 19 1 4 3 -2 6 -13 5 -11 0 -14 -3 -6 -6z"/>
</g>
</svg>
